<mxfile host="Electron" agent="Mozilla/5.0 (Windows NT 10.0; Win64; x64) AppleWebKit/537.36 (KHTML, like Gecko) draw.io/24.7.17 Chrome/128.0.6613.36 Electron/32.0.1 Safari/537.36" version="24.7.17">
  <diagram name="Страница — 1" id="d8nzEJ2zcpGzdaxowSs1">
    <mxGraphModel dx="674" dy="1193" grid="1" gridSize="10" guides="1" tooltips="1" connect="1" arrows="1" fold="1" page="1" pageScale="1" pageWidth="827" pageHeight="1169" math="0" shadow="0">
      <root>
        <mxCell id="0" />
        <mxCell id="1" parent="0" />
        <mxCell id="sRFXAXGEAmHEGnhNBkIj-64" style="edgeStyle=orthogonalEdgeStyle;rounded=0;orthogonalLoop=1;jettySize=auto;html=1;exitX=0.5;exitY=1;exitDx=0;exitDy=0;entryX=0.5;entryY=0;entryDx=0;entryDy=0;" edge="1" parent="1" source="sRFXAXGEAmHEGnhNBkIj-1">
          <mxGeometry relative="1" as="geometry">
            <mxPoint x="260" y="220" as="targetPoint" />
          </mxGeometry>
        </mxCell>
        <mxCell id="sRFXAXGEAmHEGnhNBkIj-1" value="Начало" style="ellipse;whiteSpace=wrap;html=1;" vertex="1" parent="1">
          <mxGeometry x="200" y="60" width="120" height="80" as="geometry" />
        </mxCell>
        <mxCell id="sRFXAXGEAmHEGnhNBkIj-9" style="edgeStyle=orthogonalEdgeStyle;rounded=0;orthogonalLoop=1;jettySize=auto;html=1;exitX=0.5;exitY=1;exitDx=0;exitDy=0;entryX=0.5;entryY=0;entryDx=0;entryDy=0;" edge="1" parent="1" source="sRFXAXGEAmHEGnhNBkIj-2" target="sRFXAXGEAmHEGnhNBkIj-6">
          <mxGeometry relative="1" as="geometry" />
        </mxCell>
        <mxCell id="sRFXAXGEAmHEGnhNBkIj-2" value="&lt;div&gt;cout &amp;lt;&amp;lt; &quot;Введите натуральное число больше 2: \n&quot;;&lt;/div&gt;" style="shape=parallelogram;perimeter=parallelogramPerimeter;whiteSpace=wrap;html=1;fixedSize=1;" vertex="1" parent="1">
          <mxGeometry x="90" y="220" width="340" height="60" as="geometry" />
        </mxCell>
        <mxCell id="sRFXAXGEAmHEGnhNBkIj-109" style="edgeStyle=orthogonalEdgeStyle;rounded=0;orthogonalLoop=1;jettySize=auto;html=1;exitX=0.5;exitY=1;exitDx=0;exitDy=0;entryX=0.5;entryY=0;entryDx=0;entryDy=0;" edge="1" parent="1" source="sRFXAXGEAmHEGnhNBkIj-6" target="sRFXAXGEAmHEGnhNBkIj-67">
          <mxGeometry relative="1" as="geometry" />
        </mxCell>
        <mxCell id="sRFXAXGEAmHEGnhNBkIj-6" value="&lt;div&gt;cin &amp;gt;&amp;gt; n;&lt;/div&gt;" style="shape=parallelogram;perimeter=parallelogramPerimeter;whiteSpace=wrap;html=1;fixedSize=1;" vertex="1" parent="1">
          <mxGeometry x="90" y="320" width="340" height="60" as="geometry" />
        </mxCell>
        <mxCell id="sRFXAXGEAmHEGnhNBkIj-7" value="" style="endArrow=none;dashed=1;html=1;dashPattern=1 3;strokeWidth=2;rounded=0;" edge="1" parent="1">
          <mxGeometry width="50" height="50" relative="1" as="geometry">
            <mxPoint x="450" y="160" as="sourcePoint" />
            <mxPoint x="260" y="160" as="targetPoint" />
          </mxGeometry>
        </mxCell>
        <mxCell id="sRFXAXGEAmHEGnhNBkIj-8" value="&lt;div&gt;#include &amp;lt;iostream&amp;gt;&lt;/div&gt;&lt;div&gt;using namespace std;&lt;/div&gt;&lt;div&gt;&lt;br&gt;&lt;/div&gt;&lt;div&gt;int main()&lt;/div&gt;&lt;div&gt;{&lt;/div&gt;&lt;div&gt;&lt;span style=&quot;white-space-collapse: collapse;&quot;&gt;&lt;span style=&quot;white-space-collapse: preserve;&quot;&gt;&#x9;&lt;/span&gt;setlocale(LC_ALL, &quot;&quot;);&lt;/span&gt;&lt;/div&gt;&lt;div&gt;&lt;span style=&quot;white-space-collapse: collapse;&quot;&gt;&lt;span style=&quot;white-space-collapse: preserve;&quot;&gt;&#x9;&lt;/span&gt;int n;&lt;/span&gt;&lt;/div&gt;" style="strokeWidth=2;html=1;shape=mxgraph.flowchart.annotation_1;align=left;pointerEvents=1;" vertex="1" parent="1">
          <mxGeometry x="450" y="110" width="50" height="100" as="geometry" />
        </mxCell>
        <mxCell id="sRFXAXGEAmHEGnhNBkIj-17" value="Конец" style="ellipse;whiteSpace=wrap;html=1;" vertex="1" parent="1">
          <mxGeometry x="200" y="1140" width="120" height="80" as="geometry" />
        </mxCell>
        <mxCell id="sRFXAXGEAmHEGnhNBkIj-26" value="" style="endArrow=none;dashed=1;html=1;dashPattern=1 3;strokeWidth=2;rounded=0;" edge="1" parent="1">
          <mxGeometry width="50" height="50" relative="1" as="geometry">
            <mxPoint x="450" y="1109.29" as="sourcePoint" />
            <mxPoint x="260" y="1109.29" as="targetPoint" />
          </mxGeometry>
        </mxCell>
        <mxCell id="sRFXAXGEAmHEGnhNBkIj-27" value="&lt;div&gt;&lt;span style=&quot;white-space-collapse: collapse;&quot;&gt;&lt;span style=&quot;white-space-collapse: preserve;&quot;&gt;&#x9;&lt;/span&gt;return 0;&lt;/span&gt;&lt;/div&gt;&lt;div&gt;}&lt;/div&gt;" style="strokeWidth=2;html=1;shape=mxgraph.flowchart.annotation_1;align=left;pointerEvents=1;" vertex="1" parent="1">
          <mxGeometry x="450" y="1060" width="50" height="100" as="geometry" />
        </mxCell>
        <mxCell id="sRFXAXGEAmHEGnhNBkIj-56" style="edgeStyle=orthogonalEdgeStyle;rounded=0;orthogonalLoop=1;jettySize=auto;html=1;exitX=0.5;exitY=1;exitDx=0;exitDy=0;entryX=0;entryY=0.5;entryDx=0;entryDy=0;" edge="1" parent="1" source="sRFXAXGEAmHEGnhNBkIj-47">
          <mxGeometry relative="1" as="geometry">
            <mxPoint x="180" y="1110" as="targetPoint" />
            <Array as="points">
              <mxPoint x="120" y="1550" />
              <mxPoint x="10" y="1550" />
              <mxPoint x="10" y="1110" />
            </Array>
          </mxGeometry>
        </mxCell>
        <mxCell id="sRFXAXGEAmHEGnhNBkIj-89" style="edgeStyle=orthogonalEdgeStyle;rounded=0;orthogonalLoop=1;jettySize=auto;html=1;exitX=0.5;exitY=1;exitDx=0;exitDy=0;entryX=0.5;entryY=0;entryDx=0;entryDy=0;" edge="1" parent="1" source="sRFXAXGEAmHEGnhNBkIj-67" target="sRFXAXGEAmHEGnhNBkIj-88">
          <mxGeometry relative="1" as="geometry" />
        </mxCell>
        <mxCell id="sRFXAXGEAmHEGnhNBkIj-122" style="edgeStyle=orthogonalEdgeStyle;rounded=0;orthogonalLoop=1;jettySize=auto;html=1;exitX=1;exitY=0.5;exitDx=0;exitDy=0;entryX=0.5;entryY=0;entryDx=0;entryDy=0;" edge="1" parent="1" source="sRFXAXGEAmHEGnhNBkIj-67" target="sRFXAXGEAmHEGnhNBkIj-17">
          <mxGeometry relative="1" as="geometry">
            <Array as="points">
              <mxPoint x="400" y="460" />
              <mxPoint x="400" y="1080" />
              <mxPoint x="260" y="1080" />
            </Array>
          </mxGeometry>
        </mxCell>
        <mxCell id="sRFXAXGEAmHEGnhNBkIj-67" value="for (int i = 0; i &amp;lt; n; i++)" style="shape=hexagon;perimeter=hexagonPerimeter2;whiteSpace=wrap;html=1;fixedSize=1;" vertex="1" parent="1">
          <mxGeometry x="170" y="420" width="180" height="80" as="geometry" />
        </mxCell>
        <mxCell id="sRFXAXGEAmHEGnhNBkIj-112" style="edgeStyle=orthogonalEdgeStyle;rounded=0;orthogonalLoop=1;jettySize=auto;html=1;exitX=1;exitY=0.5;exitDx=0;exitDy=0;entryX=0.5;entryY=0;entryDx=0;entryDy=0;" edge="1" parent="1" source="sRFXAXGEAmHEGnhNBkIj-88" target="sRFXAXGEAmHEGnhNBkIj-95">
          <mxGeometry relative="1" as="geometry">
            <Array as="points">
              <mxPoint x="370" y="585" />
              <mxPoint x="370" y="750" />
              <mxPoint x="260" y="750" />
            </Array>
          </mxGeometry>
        </mxCell>
        <mxCell id="sRFXAXGEAmHEGnhNBkIj-121" style="edgeStyle=orthogonalEdgeStyle;rounded=0;orthogonalLoop=1;jettySize=auto;html=1;exitX=0.5;exitY=1;exitDx=0;exitDy=0;entryX=0.5;entryY=0;entryDx=0;entryDy=0;" edge="1" parent="1" source="sRFXAXGEAmHEGnhNBkIj-88" target="sRFXAXGEAmHEGnhNBkIj-110">
          <mxGeometry relative="1" as="geometry" />
        </mxCell>
        <mxCell id="sRFXAXGEAmHEGnhNBkIj-88" value="for (int j = 1; j &amp;lt;= i; j++)" style="shape=hexagon;perimeter=hexagonPerimeter2;whiteSpace=wrap;html=1;fixedSize=1;" vertex="1" parent="1">
          <mxGeometry x="170" y="545" width="180" height="80" as="geometry" />
        </mxCell>
        <mxCell id="sRFXAXGEAmHEGnhNBkIj-115" style="edgeStyle=orthogonalEdgeStyle;rounded=0;orthogonalLoop=1;jettySize=auto;html=1;exitX=0.5;exitY=1;exitDx=0;exitDy=0;entryX=0.5;entryY=0;entryDx=0;entryDy=0;" edge="1" parent="1" source="sRFXAXGEAmHEGnhNBkIj-95" target="sRFXAXGEAmHEGnhNBkIj-113">
          <mxGeometry relative="1" as="geometry" />
        </mxCell>
        <mxCell id="sRFXAXGEAmHEGnhNBkIj-118" style="edgeStyle=orthogonalEdgeStyle;rounded=0;orthogonalLoop=1;jettySize=auto;html=1;exitX=1;exitY=0.5;exitDx=0;exitDy=0;" edge="1" parent="1" source="sRFXAXGEAmHEGnhNBkIj-95" target="sRFXAXGEAmHEGnhNBkIj-117">
          <mxGeometry relative="1" as="geometry">
            <Array as="points">
              <mxPoint x="370" y="820" />
              <mxPoint x="370" y="970" />
              <mxPoint x="260" y="970" />
            </Array>
          </mxGeometry>
        </mxCell>
        <mxCell id="sRFXAXGEAmHEGnhNBkIj-95" value="for (int j = 0; j &amp;lt; n - i; j++)" style="shape=hexagon;perimeter=hexagonPerimeter2;whiteSpace=wrap;html=1;fixedSize=1;" vertex="1" parent="1">
          <mxGeometry x="170" y="780" width="180" height="80" as="geometry" />
        </mxCell>
        <mxCell id="sRFXAXGEAmHEGnhNBkIj-111" style="edgeStyle=orthogonalEdgeStyle;rounded=0;orthogonalLoop=1;jettySize=auto;html=1;exitX=0;exitY=0.5;exitDx=0;exitDy=0;entryX=0;entryY=0.5;entryDx=0;entryDy=0;" edge="1" parent="1" source="sRFXAXGEAmHEGnhNBkIj-110" target="sRFXAXGEAmHEGnhNBkIj-88">
          <mxGeometry relative="1" as="geometry">
            <Array as="points">
              <mxPoint x="150" y="700" />
              <mxPoint x="150" y="585" />
            </Array>
          </mxGeometry>
        </mxCell>
        <mxCell id="sRFXAXGEAmHEGnhNBkIj-110" value="cout &amp;lt;&amp;lt; &quot; &quot;;" style="shape=parallelogram;perimeter=parallelogramPerimeter;whiteSpace=wrap;html=1;fixedSize=1;" vertex="1" parent="1">
          <mxGeometry x="200" y="670" width="120" height="60" as="geometry" />
        </mxCell>
        <mxCell id="sRFXAXGEAmHEGnhNBkIj-116" style="edgeStyle=orthogonalEdgeStyle;rounded=0;orthogonalLoop=1;jettySize=auto;html=1;exitX=0;exitY=0.5;exitDx=0;exitDy=0;entryX=0;entryY=0.5;entryDx=0;entryDy=0;" edge="1" parent="1" source="sRFXAXGEAmHEGnhNBkIj-113" target="sRFXAXGEAmHEGnhNBkIj-95">
          <mxGeometry relative="1" as="geometry">
            <Array as="points">
              <mxPoint x="150" y="920" />
              <mxPoint x="150" y="820" />
            </Array>
          </mxGeometry>
        </mxCell>
        <mxCell id="sRFXAXGEAmHEGnhNBkIj-113" value="cout &amp;lt;&amp;lt; &quot;*&quot;;" style="shape=parallelogram;perimeter=parallelogramPerimeter;whiteSpace=wrap;html=1;fixedSize=1;" vertex="1" parent="1">
          <mxGeometry x="200" y="890" width="120" height="60" as="geometry" />
        </mxCell>
        <mxCell id="sRFXAXGEAmHEGnhNBkIj-119" style="edgeStyle=orthogonalEdgeStyle;rounded=0;orthogonalLoop=1;jettySize=auto;html=1;exitX=0;exitY=0.5;exitDx=0;exitDy=0;entryX=0;entryY=0.5;entryDx=0;entryDy=0;" edge="1" parent="1" source="sRFXAXGEAmHEGnhNBkIj-117" target="sRFXAXGEAmHEGnhNBkIj-67">
          <mxGeometry relative="1" as="geometry">
            <Array as="points">
              <mxPoint x="70" y="1030" />
              <mxPoint x="70" y="460" />
            </Array>
          </mxGeometry>
        </mxCell>
        <mxCell id="sRFXAXGEAmHEGnhNBkIj-117" value="cout &amp;lt;&amp;lt; endl;" style="shape=parallelogram;perimeter=parallelogramPerimeter;whiteSpace=wrap;html=1;fixedSize=1;" vertex="1" parent="1">
          <mxGeometry x="200" y="1000" width="120" height="60" as="geometry" />
        </mxCell>
      </root>
    </mxGraphModel>
  </diagram>
</mxfile>
